<?xml version="1.0" encoding="UTF-8"?>
<!DOCTYPE svg PUBLIC "-//W3C//DTD SVG 1.1//EN" "http://www.w3.org/Graphics/SVG/1.1/DTD/svg11.dtd">
<!-- Creator: CorelDRAW X8 -->
<svg xmlns="http://www.w3.org/2000/svg" xml:space="preserve" width="153px" height="32px" version="1.1" style="shape-rendering:geometricPrecision; text-rendering:geometricPrecision; image-rendering:optimizeQuality; fill-rule:evenodd; clip-rule:evenodd"
viewBox="0 0 15300 3200"
 xmlns:xlink="http://www.w3.org/1999/xlink">
 <defs>
  <style type="text/css">
   <![CDATA[
    .fil1 {fill:#FEFEFE}
    .fil0 {fill:#1877F2}
    .fil2 {fill:#334155;fill-rule:nonzero}
   ]]>
  </style>
 </defs>
 <g id="Layer_x0020_1">
  <metadata id="CorelCorpID_0Corel-Layer"/>
  <rect class="fil0" transform="matrix(2.68787E-14 1.01586 -1.01587 2.68785E-14 3200.02 0.00350518)" width="3150" height="3150" rx="420" ry="420"/>
  <path class="fil1" d="M599 422l0 351 141 141 578 574c-240,0 -479,0 -719,0 0,429 0,858 0,1287l492 0 0 -794 13 0 795 797 702 -3 -797 -794 13 0 0 -4c105,0 204,-20 297,-60 93,-41 174,-97 243,-168 69,-71 123,-153 164,-247 40,-95 60,-195 60,-302 0,-108 -20,-208 -60,-302 -41,-95 -95,-177 -164,-248 -69,-71 -150,-127 -243,-168 -93,-40 -192,-60 -297,-60l-1218 0z"/>
  <path class="fil2" d="M4518 1195l-236 0 0 638 -436 0 0 -1808 712 0c214,0 382,48 503,143 121,96 181,230 181,404 0,126 -26,230 -77,313 -50,82 -130,149 -239,201l378 729 0 18 -467 0 -319 -638zm-236 -336l276 0c82,0 145,-21 187,-65 42,-43 62,-104 62,-182 0,-78 -21,-140 -63,-184 -42,-45 -105,-67 -186,-67l-276 0 0 498zm2388 206l-686 0 0 433 810 0 0 335 -1246 0 0 -1808 1248 0 0 336 -812 0 0 381 686 0 0 323zm1046 277l360 -1317 487 0 -609 1808 -477 0 -603 -1808 483 0 359 1317zm1485 491l-434 0 0 -1808 434 0 0 1808zm1279 -477c0,-65 -23,-115 -68,-151 -46,-37 -125,-74 -238,-112 -113,-38 -206,-75 -278,-110 -234,-116 -351,-274 -351,-475 0,-100 29,-188 87,-265 59,-77 141,-136 248,-179 106,-43 227,-64 360,-64 130,0 246,23 349,69 103,47 183,113 241,198 57,86 85,184 85,294l-434 0c0,-74 -23,-131 -68,-172 -45,-41 -106,-61 -183,-61 -78,0 -139,17 -184,52 -46,34 -68,78 -68,131 0,47 25,89 74,126 50,38 137,77 262,117 125,41 228,84 308,130 195,113 293,268 293,467 0,158 -59,282 -179,372 -119,90 -282,136 -490,136 -147,0 -279,-27 -398,-79 -119,-53 -208,-124 -268,-216 -60,-91 -90,-196 -90,-315l437 0c0,98 25,170 75,217 50,46 131,70 244,70 72,0 129,-16 171,-47 41,-32 63,-76 63,-133zm1166 477l-434 0 0 -1808 434 0 0 1808zm1876 -866c0,176 -33,332 -98,468 -65,136 -158,241 -279,314 -120,73 -257,110 -411,110 -154,0 -291,-36 -410,-107 -119,-70 -212,-172 -279,-303 -66,-132 -101,-283 -104,-454l0 -102c0,-177 32,-333 97,-469 65,-135 158,-240 279,-313 122,-74 260,-111 414,-111 153,0 290,36 410,109 120,73 213,177 280,311 67,135 100,289 101,464l0 83zm-443 -75c0,-180 -30,-317 -90,-411 -60,-94 -146,-140 -258,-140 -218,0 -334,165 -346,494l-1 134c0,178 29,315 88,410 59,96 146,144 262,144 110,0 195,-47 254,-141 60,-94 90,-229 91,-406l0 -84zm2221 941l-433 0 -641 -1125 0 1125 -436 0 0 -1808 436 0 640 1126 0 -1126 434 0 0 1808z"/>
  <path class="fil2" d="M4027 3189l-181 0 0 -754 181 0 0 754zm419 -754l168 525 168 -525 239 0 0 754 -182 0 0 -176 18 -360 -183 536 -120 0 -183 -537 18 361 0 176 -182 0 0 -754 239 0zm1182 613l-250 0 -43 141 -194 0 276 -754 171 0 279 754 -195 0 -44 -141zm-206 -140l162 0 -81 -262 -81 262zm1160 188c-28,31 -69,56 -123,76 -54,18 -113,28 -177,28 -99,0 -178,-30 -237,-91 -59,-60 -91,-144 -95,-252l0 -65c0,-75 13,-139 39,-195 26,-55 64,-98 113,-128 48,-30 105,-45 169,-45 94,0 167,22 219,65 52,43 83,107 91,192l-175 0c-6,-42 -20,-72 -40,-90 -21,-18 -50,-27 -88,-27 -46,0 -81,20 -106,58 -25,39 -38,94 -38,166l0 46c0,75 13,131 39,169 25,38 66,57 121,57 47,0 83,-11 106,-32l0 -117 -127 0 0 -125 309 0 0 310zm626 -227l-286 0 0 180 338 0 0 140 -520 0 0 -754 521 0 0 140 -339 0 0 159 286 0 0 135zm654 320l0 -754 243 0c67,0 127,15 180,45 53,30 95,73 125,128 30,55 45,117 45,186l0 34c0,69 -14,131 -44,186 -29,55 -70,98 -123,129 -53,30 -112,46 -177,46l-249 0zm182 -614l0 474 63 0c53,0 93,-18 121,-55 28,-38 42,-93 42,-166l0 -33c0,-73 -14,-128 -42,-165 -28,-36 -69,-55 -123,-55l-61 0zm1196 253c0,73 -14,139 -41,195 -27,57 -66,101 -116,131 -51,31 -108,46 -172,46 -64,0 -121,-15 -171,-44 -50,-30 -89,-72 -116,-127 -28,-55 -43,-118 -44,-189l0 -43c0,-74 13,-139 41,-196 27,-56 65,-100 116,-131 51,-30 108,-46 173,-46 64,0 121,15 171,46 50,30 89,74 117,130 28,56 42,120 42,193l0 35zm-185 -31c0,-76 -12,-133 -38,-172 -25,-39 -60,-59 -107,-59 -91,0 -139,69 -145,207l0 56c0,74 12,131 37,171 24,40 61,60 109,60 46,0 81,-20 106,-59 25,-39 38,-96 38,-169l0 -35zm916 111l87 -473 180 0 -160 754 -188 0 -102 -430 -98 430 -189 0 -160 -754 181 0 86 473 104 -473 154 0 105 473zm1021 281l-181 0 -267 -469 0 469 -182 0 0 -754 182 0 267 469 0 -469 181 0 0 754zm350 -140l317 0 0 140 -499 0 0 -754 182 0 0 614zm1052 -221c0,73 -14,139 -41,195 -28,57 -66,101 -117,131 -50,31 -107,46 -171,46 -65,0 -122,-15 -171,-44 -50,-30 -89,-72 -117,-127 -28,-55 -42,-118 -44,-189l0 -43c0,-74 14,-139 41,-196 27,-56 66,-100 117,-131 50,-30 108,-46 172,-46 64,0 121,15 172,46 50,30 89,74 116,130 28,56 42,120 43,193l0 35zm-185 -31c0,-76 -13,-133 -38,-172 -25,-39 -61,-59 -108,-59 -91,0 -139,69 -144,207l-1 56c0,74 13,131 37,171 25,40 61,60 110,60 46,0 81,-20 106,-59 25,-39 37,-96 38,-169l0 -35zm749 251l-249 0 -44 141 -194 0 277 -754 171 0 279 754 -196 0 -44 -141zm-206 -140l163 0 -82 -262 -81 262zm553 281l0 -754 243 0c67,0 127,15 180,45 53,30 95,73 125,128 30,55 45,117 45,186l0 34c0,69 -15,131 -44,186 -29,55 -70,98 -123,129 -53,30 -112,46 -177,46l-249 0zm182 -614l0 474 63 0c53,0 93,-18 121,-55 28,-38 42,-93 42,-166l0 -33c0,-73 -14,-128 -42,-165 -28,-36 -69,-55 -123,-55l-61 0zm1025 294l-286 0 0 180 338 0 0 140 -520 0 0 -754 521 0 0 140 -339 0 0 159 286 0 0 135zm459 54l-98 0 0 266 -182 0 0 -754 297 0c89,0 159,20 209,59 51,40 76,96 76,169 0,52 -11,96 -32,131 -21,34 -54,62 -100,83l158 305 0 7 -195 0 -133 -266zm-98 -140l115 0c34,0 60,-9 78,-27 17,-19 26,-44 26,-77 0,-32 -9,-58 -27,-76 -17,-19 -43,-28 -77,-28l-115 0 0 208z"/>
 </g>
</svg>
